<?xml version="1.0" encoding="UTF-8" standalone="no"?>
<!DOCTYPE svg PUBLIC "-//W3C//DTD SVG 1.1//EN" "http://www.w3.org/Graphics/SVG/1.1/DTD/svg11.dtd">

<!-- Created with Vectornator (http://vectornator.io/) -->
<svg height="100%" stroke-miterlimit="10" style="fill-rule:nonzero;clip-rule:evenodd;stroke-linecap:round;stroke-linejoin:round;" version="1.1" viewBox="0 0 1024 768" width="100%" xml:space="preserve" xmlns="http://www.w3.org/2000/svg" xmlns:vectornator="http://vectornator.io" xmlns:xlink="http://www.w3.org/1999/xlink">
<metadata>
<vectornator:setting key="IsTimeLapseWatermarkDisabled" value="false"/>
<vectornator:setting key="UndoHistoryDisabled" value="true"/>
<vectornator:setting key="VNDimensionsVisible" value="true"/>
<vectornator:setting key="VNSnapToGuides" value="true"/>
<vectornator:setting key="WDCMYKEnabledKey" value="false"/>
<vectornator:setting key="WDDisplayWhiteBackground" value="false"/>
<vectornator:setting key="WDDynamicGuides" value="false"/>
<vectornator:setting key="WDGuidesVisible" value="true"/>
<vectornator:setting key="WDIsolateActiveLayer" value="false"/>
<vectornator:setting key="WDOutlineMode" value="false"/>
<vectornator:setting key="WDRulersVisible" value="true"/>
<vectornator:setting key="WDSnapToEdges" value="false"/>
<vectornator:setting key="WDSnapToGrid" value="false"/>
<vectornator:setting key="WDSnapToPoints" value="false"/>
<vectornator:setting key="WDUnits" value="Pixels"/>
</metadata>
<defs>
<radialGradient cx="403.824" cy="627.98" gradientTransform="matrix(1 0 0 1 0 0)" gradientUnits="userSpaceOnUse" id="RadialGradient" r="387.756">
<stop offset="0" stop-color="#c93141"/>
<stop offset="1" stop-color="#317b4e"/>
</radialGradient>
</defs>
<g id="Layer-1-" vectornator:layerName="Layer 1 ''" visibility="hidden">
<path d="M593.598 706.807C267.091 568.275 226.25-34.1505 702.062 117.424C1121.54 251.052 678.526 716.4 333.173 556.544" fill="none" fill-rule="evenodd" opacity="1" stroke="#000000" stroke-linecap="round" stroke-linejoin="round" stroke-width="29.9351"/>
</g>
<g id="Layer-3" vectornator:layerName="Layer 3" visibility="hidden">
<path d="M593.598 706.807C267.091 568.275 226.25-34.1505 702.062 117.424C1121.54 251.052 678.526 716.4 333.173 556.544" fill="#00dd57" fill-rule="evenodd" opacity="1" stroke="none"/>
</g>
<g id="Ri" vectornator:layerName="Ri">
<path d="M286.517 286.127C277.95 292.567 295.014 305.855 300.332 315.161C316.147 342.838 322.325 369.197 329.834 400.39C339.726 441.48 375.341 596.646 415.532 616.741C422.31 620.131 428.63 606.533 431.922 602.693C481.978 544.294 509.788 469.057 556.02 407.415C561.481 400.133 654.52 297.684 648.741 286.127C647 282.645 613.921 284.134 610.81 284.254C575.393 285.616 292.286 281.791 286.517 286.127Z" fill="url(#RadialGradient)" fill-rule="evenodd" opacity="1" stroke="none"/>
</g>
<g id="Layer-1" vectornator:layerName="Layer 1">
<path d="M284.176 286.595C275.609 293.035 292.673 306.324 297.99 315.629C313.806 343.307 319.983 369.665 327.493 400.859C337.385 441.948 373 597.115 413.19 617.21C419.969 620.599 426.289 607.001 429.58 603.161C479.637 544.762 507.447 469.525 553.678 407.883C559.14 400.601 652.179 298.152 646.4 286.595C644.659 283.113 611.579 284.602 608.468 284.722C573.052 286.084 289.944 282.259 284.176 286.595Z" fill="none" fill-rule="evenodd" opacity="1" stroke="#000000" stroke-linecap="round" stroke-linejoin="round" stroke-width="29.9351"/>
</g>
</svg>
